# Blender 4.3.2
# www.blender.org
mtllib untitled.mtl
o Cube
v -10.000000 -1.000000 10.000000
v -10.000000 1.000000 10.000000
v -10.000000 -1.000000 -10.000000
v -10.000000 1.000000 -10.000000
v 10.000000 -1.000000 10.000000
v 10.000000 1.000000 10.000000
v 10.000000 -1.000000 -10.000000
v 10.000000 1.000000 -10.000000
vn -1.0000 -0.0000 -0.0000
vn -0.0000 -0.0000 -1.0000
vn 1.0000 -0.0000 -0.0000
vn -0.0000 -0.0000 1.0000
vn -0.0000 -1.0000 -0.0000
vn -0.0000 1.0000 -0.0000
vt 0.989901 -1.942963
vt 0.010099 -0.963162
vt 0.010099 -1.942963
vt 0.989901 -0.963162
vt 0.010099 0.016640
vt 0.989901 0.016640
vt 0.010099 0.996442
vt 0.989901 0.996442
vt 0.010099 1.976243
vt -0.969702 0.996442
vt -0.969702 0.016640
vt 1.969702 0.016640
vt 0.989901 1.976243
vt 1.969702 0.996442
s 0
usemtl Material.001
f 2/1/1 3/2/1 1/3/1
f 4/4/2 7/5/2 3/2/2
f 8/6/3 5/7/3 7/5/3
f 6/8/4 1/9/4 5/7/4
f 7/5/5 1/10/5 3/11/5
f 4/12/6 6/8/6 8/6/6
f 2/1/1 4/4/1 3/2/1
f 4/4/2 8/6/2 7/5/2
f 8/6/3 6/8/3 5/7/3
f 6/8/4 2/13/4 1/9/4
f 7/5/5 5/7/5 1/10/5
f 4/12/6 2/14/6 6/8/6
